#!OML:ASF F:\VICON\USERDATA\INSTALL\rory3\rory3.ASF
:FULLY-SPECIFIED
:DEGREES
141
root 4.25362 17.856 4.95894 -1.26662 -5.35509 -7.36288
lowerback 10.198 1.87936 6.57859
upperback 0.0607079 3.38787 1.98699
thorax -5.40546 1.51762 -2.10103
lowerneck -16.9599 -3.6297 -1.63531
upperneck 22.3022 -4.73128 0.40053
head 9.94091 -2.28029 -0.22403
rclavicle 2.4786e-014 4.6118e-014
rhumerus -22.1759 -8.89084 -81.3371
rradius 32.5093
rwrist -1.52361
rhand -19.1466 21.7541
rfingers 7.12502
rthumb 7.16361 -8.10469
lclavicle 2.4786e-014 4.6118e-014
lhumerus -38.4639 -1.35325 86.775
lradius 29.0124
lwrist 7.55364
lhand -25.3453 28.453
lfingers 7.12502
lthumb 1.17807 58.4295
rfemur 7.48895 8.40837 34.4718
rtibia 24.3713
rfoot -21.1659 -6.11723
rtoes 4.29219
lfemur -25.8751 -6.72522 -7.24888
ltibia 16.4541
lfoot -8.9942 8.77952
ltoes -3.94786
142
root 4.27041 17.8281 5.15601 -1.25058 -5.52124 -7.30682
lowerback 10.1471 1.91306 6.563
upperback 0.0437536 3.42716 1.98364
thorax -5.39221 1.53748 -2.09929
lowerneck -16.8348 -3.60262 -1.74463
upperneck 22.1044 -4.67512 0.455122
head 9.85092 -2.25924 -0.174585
rclavicle 1.69433e-015 5.34234e-015
rhumerus -22.1627 -8.7562 -81.3034
rradius 32.6196
rwrist -1.61943
rhand -19.3217 21.5583
rfingers 7.12502
rthumb 6.99463 -8.30614
lclavicle 1.69433e-015 5.34234e-015
lhumerus -38.7161 -1.19263 86.7906
lradius 29.1536
lwrist 7.94847
lhand -24.6596 29.1091
lfingers 7.12502
lthumb 1.84036 59.0809
rfemur 8.07328 8.32314 34.3024
rtibia 24.5418
rfoot -21.297 -5.83667
rtoes 4.60352
lfemur -25.7261 -6.98025 -7.21971
ltibia 15.053
lfoot -9.42449 9.60585
ltoes -3.50681
143
root 4.28454 17.7992 5.34511 -1.15276 -5.60437 -7.20597
lowerback 10.1048 1.96468 6.4832
upperback -0.0258826 3.48469 1.94295
thorax -5.43935 1.56459 -2.10505
lowerneck -16.8072 -3.57446 -1.71841
upperneck 21.971 -4.64575 0.474323
head 9.79784 -2.24216 -0.166185
rclavicle 2.35669e-014 -7.50412e-015
rhumerus -22.2735 -8.77792 -81.2342
rradius 32.7277
rwrist -1.6065
rhand -19.4435 22.2718
rfingers 7.12502
rthumb 6.87709 -7.59653
lclavicle 2.35669e-014 -7.50412e-015
lhumerus -38.8685 -1.04213 86.7349
lradius 29.1617
lwrist 6.28087
lhand -23.4049 31.9344
lfingers 7.12502
lthumb 3.05211 61.8923
rfemur 8.54426 8.32211 34.1323
rtibia 24.7899
rfoot -21.3445 -5.8144
rtoes 3.57875
lfemur -25.7317 -6.49631 -7.54914
ltibia 14.1936
lfoot -9.428 9.74134
ltoes -5.66126
144
root 4.30126 17.782 5.53076 -1.00708 -5.58497 -7.09011
lowerback 10.091 1.98364 6.45995
upperback -0.130765 3.50719 1.85413
thorax -5.53639 1.56994 -2.19003
lowerneck -16.7451 -3.60595 -1.46897
upperneck 21.8252 -4.69929 0.241619
head 9.72186 -2.27463 -0.292037
rclavicle -3.29874e-014 -1.00386e-014
rhumerus -22.2212 -9.11391 -81.1724
rradius 32.5813
rwrist -1.24112
rhand -19.5036 23.0101
rfingers 7.12502
rthumb 6.81899 -6.86011
lclavicle -3.29874e-014 -1.00386e-014
lhumerus -38.9962 -1.60092 87.209
lradius 27.928
lwrist 7.80117
lhand -28.3018 20.9447
lfingers 7.12502
lthumb -1.67737 50.9178
rfemur 8.8568 8.37681 33.9382
rtibia 25.1908
rfoot -21.2964 -5.64447
rtoes 2.34771
lfemur -25.6118 -5.68288 -8.11191
ltibia 13.5408
lfoot -9.25585 9.19924
ltoes -7.4266
145
root 4.31817 17.7656 5.72307 -0.976912 -5.48224 -7.2521
lowerback 10.0571 1.93383 6.70739
upperback -0.156892 3.46987 1.87673
thorax -5.53566 1.54444 -2.29773
lowerneck -16.4906 -3.62306 -1.46618
upperneck 21.6273 -4.73068 0.266291
head 9.60547 -2.28899 -0.280418
rclavicle 1.48747e-014 3.97569e-015
rhumerus -21.9254 -9.59629 -81.0833
rradius 32.1989
rwrist -0.725787
rhand -19.3734 23.1179
rfingers 7.12502
rthumb 6.94468 -6.74816
lclavicle 1.48747e-014 3.97569e-015
lhumerus -39.0297 -1.45229 87.1685
lradius 27.3272
lwrist 7.90166
lhand -29.039 17.1811
lfingers 7.12502
lthumb -2.38936 47.1474
rfemur 9.30972 8.40711 34.1004
rtibia 25.6974
rfoot -21.2051 -5.63997
rtoes -0.437085
lfemur -25.4709 -5.62884 -8.18789
ltibia 13.366
lfoot -9.15115 9.17361
ltoes -5.90282
146
root 4.3312 17.7494 5.91642 -1.11138 -5.33002 -7.20703
lowerback 10.0777 1.88533 6.68131
upperback -0.0866418 3.39912 1.86152
thorax -5.47933 1.51354 -2.28889
lowerneck -16.5791 -3.58454 -1.49066
upperneck 21.6363 -4.71553 0.455718
head 9.63087 -2.26143 -0.210912
rclavicle -2.5623e-014 -1.39149e-015
rhumerus -21.7399 -9.71393 -81.0893
rradius 32.1481
rwrist -0.795511
rhand -19.402 23.1223
rfingers 7.12502
rthumb 6.91712 -6.7447
lclavicle -2.5623e-014 -1.39149e-015
lhumerus -39.0289 -1.18481 87.0192
lradius 27.1648
lwrist 8.03549
lhand -28.5627 17.5854
lfingers 7.12502
lthumb -1.92936 47.5564
rfemur 9.89076 8.30928 34.0551
rtibia 26.2501
rfoot -21.0419 -5.5447
rtoes -2.21025
lfemur -25.3553 -5.82457 -8.46953
ltibia 13.7504
lfoot -8.70186 9.24311
ltoes -5.23509
147
root 4.34478 17.7324 6.11624 -1.36462 -5.11932 -6.87413
lowerback 10.0869 1.87532 6.30704
upperback 0.0836183 3.33105 1.8249
thorax -5.32786 1.49817 -2.10652
lowerneck -17.0348 -3.61547 -1.51189
upperneck 21.76 -4.75171 0.471358
head 9.76086 -2.27397 -0.217422
rclavicle 2.2354e-014 1.74434e-014
rhumerus -21.6885 -9.61059 -81.0433
rradius 32.5579
rwrist -1.37277
rhand -19.4125 22.2198
rfingers 7.12502
rthumb 6.90693 -7.64757
lclavicle 2.2354e-014 1.74434e-014
lhumerus -39.0389 -1.37054 87.3471
lradius 26.8712
lwrist 8.60348
lhand -29.5081 15.1794
lfingers 7.12502
lthumb -2.84242 45.1402
rfemur 10.4559 8.26044 33.7374
rtibia 26.8597
rfoot -20.7628 -5.48305
rtoes -3.36578
lfemur -25.2098 -5.12473 -9.45355
ltibia 14.4578
lfoot -8.01412 8.33506
ltoes -7.2672
148
root 4.36047 17.7172 6.32499 -1.62994 -5.03483 -6.71235
lowerback 10.2491 1.90026 6.12321
upperback 0.120442 3.35458 1.83493
thorax -5.389 1.51326 -2.0035
lowerneck -17.0697 -3.6519 -1.58973
upperneck 21.6754 -4.78343 0.491137
head 9.74045 -2.29304 -0.201725
rclavicle -6.11651e-015 -1.635e-014
rhumerus -21.8907 -9.70973 -80.8404
rradius 32.7178
rwrist -1.81766
rhand -19.4519 21.7887
rfingers 7.12502
rthumb 6.86892 -8.07982
lclavicle -6.11651e-015 -1.635e-014
lhumerus -39.1771 -1.19609 87.4367
lradius 26.6023
lwrist 8.84993
lhand -29.0436 13.5327
lfingers 7.12502
lthumb -2.39386 43.499
rfemur 10.9377 8.34404 33.5924
rtibia 27.6097
rfoot -20.3674 -5.16302
rtoes -3.77686
lfemur -24.9276 -4.23024 -10.3133
ltibia 15.3131
lfoot -7.77355 7.4501
ltoes -8.86058
149
root 4.38072 17.7073 6.53448 -1.69584 -4.94547 -6.82789
lowerback 10.2483 1.8763 6.29765
upperback 0.0369746 3.34979 1.8645
thorax -5.4696 1.50249 -2.07078
lowerneck -16.6546 -3.67678 -1.60359
upperneck 21.4607 -4.83167 0.549292
head 9.59 -2.31428 -0.174816
rclavicle 4.42762e-015 2.22887e-014
rhumerus -22.1458 -10.0187 -80.6762
rradius 32.5175
rwrist -1.58749
rhand -19.694 22.0647
rfingers 7.12502
rthumb 6.63525 -7.81133
lclavicle 4.42762e-015 2.22887e-014
lhumerus -39.2277 -0.421027 86.8805
lradius 26.5669
lwrist 6.95536
lhand -27.4087 19.3098
lfingers 7.12502
lthumb -0.814853 49.288
rfemur 11.1408 8.0747 33.5707
rtibia 28.4632
rfoot -19.8188 -4.66296
rtoes -4.78005
lfemur -24.8944 -4.04893 -10.6052
ltibia 16.3934
lfoot -7.83355 7.01243
ltoes -7.68209
150
root 4.39951 17.6965 6.74564 -1.82799 -4.82663 -7.03773
lowerback 10.1596 1.82397 6.51076
upperback 0.0640433 3.30207 1.96614
thorax -5.38963 1.47782 -2.07176
lowerneck -16.1553 -3.70782 -1.73464
upperneck 21.1008 -4.88739 0.740264
head 9.38101 -2.33511 -0.0806729
rclavicle 1.76911e-014 3.03147e-015
rhumerus -22.1993 -10.3096 -80.4962
rradius 32.3392
rwrist -1.31455
rhand -19.6667 21.8554
rfingers 7.12502
rthumb 6.66156 -8.01979
lclavicle 1.76911e-014 3.03147e-015
lhumerus -39.3189 0.0129967 86.6486
lradius 26.6607
lwrist 4.519
lhand -26.1143 24.944
lfingers 7.12502
lthumb 0.435356 54.9233
rfemur 11.4608 7.59261 33.6194
rtibia 29.3715
rfoot -19.1275 -4.16694
rtoes -6.73907
lfemur -24.8804 -4.03983 -10.7025
ltibia 17.6441
lfoot -7.46994 6.18706
ltoes -7.06135
151
root 4.42047 17.6901 6.97094 -2.08582 -4.89434 -6.90988
lowerback 10.1357 1.87221 6.44368
upperback 0.140479 3.35039 1.94245
thorax -5.29355 1.50774 -2.063
lowerneck -16.1047 -3.79337 -1.70806
upperneck 20.9729 -5.00323 0.703459
head 9.32668 -2.39239 -0.110042
rclavicle -1.73961e-014 -2.90101e-014
rhumerus -22.4412 -10.6614 -80.3154
rradius 32.2995
rwrist -1.04789
rhand -19.3172 22.3312
rfingers 7.12502
rthumb 6.99894 -7.53314
lclavicle -1.73961e-014 -2.90101e-014
lhumerus -39.506 -0.375254 87.0143
lradius 26.0179
lwrist 5.98769
lhand -28.25 19.3563
lfingers 7.12502
lthumb -1.62735 49.3298
rfemur 11.9062 7.36626 33.3242
rtibia 30.3607
rfoot -18.3336 -3.55228
rtoes -7.69141
lfemur -24.6149 -3.87581 -11.1588
ltibia 18.8221
lfoot -6.95996 4.75824
ltoes -6.84917
152
root 4.44485 17.6953 7.20368 -2.22302 -4.9136 -6.50851
lowerback 9.90328 1.95716 6.17653
upperback 0.229767 3.40038 1.80004
thorax -5.07031 1.54675 -2.05728
lowerneck -16.5631 -3.8666 -1.5614
upperneck 21.2633 -5.10288 0.536737
head 9.50497 -2.44039 -0.217382
rclavicle 1.5327e-014 2.15619e-014
rhumerus -22.4887 -11.1924 -80.153
rradius 31.9415
rwrist -0.828465
rhand -18.7749 23.4067
rfingers 7.12502
rthumb 7.52238 -6.43952
lclavicle 1.5327e-014 2.15619e-014
lhumerus -39.2045 -0.406379 87.0305
lradius 25.3226
lwrist 5.88676
lhand -27.957 19.6141
lfingers 7.12502
lthumb -1.3444 49.5896
rfemur 12.0935 7.14081 32.6868
rtibia 31.5179
rfoot -17.3601 -2.80296
rtoes -6.45967
lfemur -24.4401 -3.6252 -11.904
ltibia 19.8176
lfoot -5.90391 2.58961
ltoes -5.74423
153
root 4.47306 17.7088 7.43144 -2.27881 -4.69561 -6.23654
lowerback 9.70597 1.92814 6.0322
upperback 0.201263 3.3287 1.74542
thorax -4.99953 1.51643 -2.0165
lowerneck -16.7731 -3.837 -1.64368
upperneck 21.593 -5.06263 0.617815
head 9.66439 -2.41502 -0.179261
rclavicle 2.218e-014 4.17448e-015
rhumerus -22.455 -11.8709 -79.9017
rradius 31.3169
rwrist -0.388919
rhand -18.6735 23.7721
rfingers 7.12502
rthumb 7.62034 -6.07062
lclavicle 2.218e-014 4.17448e-015
lhumerus -38.9246 -0.0522337 86.8747
lradius 24.6257
lwrist 4.92196
lhand -28.4838 19.7077
lfingers 7.12502
lthumb -1.85317 49.6794
rfemur 12.0509 6.79877 32.1991
rtibia 32.8679
rfoot -16.1765 -2.19294
rtoes -6.75951
lfemur -24.4039 -4.15029 -12.272
ltibia 20.6862
lfoot -4.08315 0.819347
ltoes -5.92207
